<svg xmlns="http://www.w3.org/2000/svg" width="40" height="40" viewBox="0 0 10.583 10.583">
  <defs>
    <marker id="a" markerHeight="1" markerWidth="1" orient="auto-start-reverse" overflow="visible" preserveAspectRatio="xMidYMid" refX="0" refY="0" viewBox="0 0 1 1">
      <path fill="none" stroke="context-stroke" d="M3-3 0 0l3 3" transform="rotate(180 .125 0)"/>
    </marker>
  </defs>
  <g stroke="#000" stroke-width=".338">
    <path fill="#fff" d="m2.355 1.957.958-.995h4.915v8.659H2.355Z"/>
    <path fill="none" d="M2.355 1.957H3.4V.962"/>
  </g>
  <path d="M3.623 5.114a2.224 2.224 0 0 1-.576-.08V2.898l.39-.011v.742a.625.625 0 0 1 .158-.054.84.84 0 0 1 .152-.014.52.52 0 0 1 .325.1.567.567 0 0 1 .198.27c.045.115.067.25.067.407a.936.936 0 0 1-.084.411.608.608 0 0 1-.243.271.75.75 0 0 1-.387.094zm-.008-.334a.297.297 0 0 0 .24-.104c.058-.07.087-.186.087-.35 0-.092-.01-.17-.031-.231a.29.29 0 0 0-.09-.147.226.226 0 0 0-.153-.05.501.501 0 0 0-.231.059v.807l.093.014c.034.002.062.002.085.002zm2.599.3V2.892l.387-.005v.72a.923.923 0 0 1 .231-.046c.147 0 .262.03.344.088a.445.445 0 0 1 .178.237c.036.102.054.22.054.355v.839h-.39v-.788a.897.897 0 0 0-.022-.223.223.223 0 0 0-.068-.127.198.198 0 0 0-.135-.042.413.413 0 0 0-.108.014.62.62 0 0 0-.084.023V5.08zM3.618 8.64a1.2 1.2 0 0 1-.257-.025.58.58 0 0 1-.2-.082.376.376 0 0 1-.128-.15.572.572 0 0 1-.042-.23c0-.118.03-.209.087-.275a.472.472 0 0 1 .229-.143.975.975 0 0 1 .3-.046c.052 0 .1.003.146.009.045.003.086.01.121.017v-.048a.265.265 0 0 0-.03-.13.216.216 0 0 0-.1-.093.407.407 0 0 0-.18-.034 1.32 1.32 0 0 0-.212.017c-.068.01-.173.021-.217.037l-.003-.314a1.688 1.688 0 0 1 .48-.067c.162 0 .289.024.38.073a.41.41 0 0 1 .195.209c.04.09.06.197.06.321v.887a2.993 2.993 0 0 1-.254.042 2.498 2.498 0 0 1-.375.025zm.028-.313a2.488 2.488 0 0 0 .228-.008v-.342a.96.96 0 0 0-.09-.008.78.78 0 0 0-.251.008.244.244 0 0 0-.116.054c-.028.024-.042.06-.042.11 0 .066.024.114.073.144a.41.41 0 0 0 .198.042zm2.568.28V6.419l.387-.005v.72a.959.959 0 0 1 .231-.045c.147 0 .262.03.344.087a.445.445 0 0 1 .178.238c.036.101.054.22.054.355v.839h-.39V7.82a.897.897 0 0 0-.022-.223.223.223 0 0 0-.068-.127.198.198 0 0 0-.135-.042.42.42 0 0 0-.108.014.641.641 0 0 0-.084.023v1.143z" aria-label="b.h a.h"/>
  <path fill="none" stroke="#fe0000" stroke-width=".35" marker-end="url(#a)" marker-start="url(#a)" d="M7.863 4.203c.965 0 2.11-.207 2.11 1.967 0 2.176-1.343 1.786-2.005 1.786"/>
  <circle cx="5.228" cy="4.828" r=".287"/>
  <circle cx="5.226" cy="8.354" r=".287"/>
</svg>
